<?xml version="1.0" encoding="UTF-8" standalone="no"?>

<!--
Licensed to the Apache Software Foundation (ASF) under one
or more contributor license agreements.  See the NOTICE file
distributed with this work for additional information
regarding copyright ownership.  The ASF licenses this file
to you under the Apache License, Version 2.0 (the
"License"); you may not use this file except in compliance
with the License.  You may obtain a copy of the License at

  http://www.apache.org/licenses/LICENSE-2.0

Unless required by applicable law or agreed to in writing,
software distributed under the License is distributed on an
"AS IS" BASIS, WITHOUT WARRANTIES OR CONDITIONS OF ANY
KIND, either express or implied.  See the License for the
specific language governing permissions and limitations
under the License.
-->

<!-- Created with Inkscape (http://www.inkscape.org/) -->

<svg
   xmlns:dc="http://purl.org/dc/elements/1.1/"
   xmlns:cc="http://creativecommons.org/ns#"
   xmlns:rdf="http://www.w3.org/1999/02/22-rdf-syntax-ns#"
   xmlns:svg="http://www.w3.org/2000/svg"
   xmlns="http://www.w3.org/2000/svg"
   xmlns:xlink="http://www.w3.org/1999/xlink"
   version="1.1"
   width="756.38092"
   height="653.2381"
   id="svg2">
  <defs
     id="defs4">
    <linearGradient
       x1="-6953.3999"
       y1="1134.7"
       x2="-6012"
       y2="1134.7"
       id="j"
       gradientUnits="userSpaceOnUse"
       gradientTransform="matrix(-0.21591,0.044142,-0.044142,-0.21591,-974.83,437.49)">
      <stop
         id="stop3529"
         style="stop-color:#9e2064;stop-opacity:1"
         offset="0.3233" />
      <stop
         id="stop3531"
         style="stop-color:#c92037;stop-opacity:1"
         offset="0.63020003" />
      <stop
         id="stop3533"
         style="stop-color:#cd2335;stop-opacity:1"
         offset="0.75139999" />
      <stop
         id="stop3535"
         style="stop-color:#e97826;stop-opacity:1"
         offset="1" />
    </linearGradient>
    <linearGradient
       x1="-9346.0996"
       y1="1137.7"
       x2="-5087"
       y2="1137.7"
       id="a"
       gradientUnits="userSpaceOnUse"
       gradientTransform="matrix(-0.21591,0.044142,-0.044142,-0.21591,-974.83,437.49)">
      <stop
         id="stop3520"
         style="stop-color:#9e2064;stop-opacity:1"
         offset="0.3233" />
      <stop
         id="stop3522"
         style="stop-color:#c92037;stop-opacity:1"
         offset="0.63020003" />
      <stop
         id="stop3524"
         style="stop-color:#cd2335;stop-opacity:1"
         offset="0.75139999" />
      <stop
         id="stop3526"
         style="stop-color:#e97826;stop-opacity:1"
         offset="1" />
    </linearGradient>
    <linearGradient
       x1="-9346.0996"
       y1="1152.7"
       x2="-5087"
       y2="1152.7"
       id="b"
       gradientUnits="userSpaceOnUse"
       gradientTransform="matrix(-0.21591,0.044142,-0.044142,-0.21591,-974.83,437.49)">
      <stop
         id="stop3511"
         style="stop-color:#9e2064;stop-opacity:1"
         offset="0.3233" />
      <stop
         id="stop3513"
         style="stop-color:#c92037;stop-opacity:1"
         offset="0.63020003" />
      <stop
         id="stop3515"
         style="stop-color:#cd2335;stop-opacity:1"
         offset="0.75139999" />
      <stop
         id="stop3517"
         style="stop-color:#e97826;stop-opacity:1"
         offset="1" />
    </linearGradient>
    <linearGradient
       x1="-9610.2998"
       y1="999.72998"
       x2="-5351.2002"
       y2="999.72998"
       id="c"
       gradientUnits="userSpaceOnUse"
       gradientTransform="matrix(-0.21591,0.044142,-0.044142,-0.21591,-974.83,437.49)">
      <stop
         id="stop3502"
         style="stop-color:#9e2064;stop-opacity:1"
         offset="0.3233" />
      <stop
         id="stop3504"
         style="stop-color:#c92037;stop-opacity:1"
         offset="0.63020003" />
      <stop
         id="stop3506"
         style="stop-color:#cd2335;stop-opacity:1"
         offset="0.75139999" />
      <stop
         id="stop3508"
         style="stop-color:#e97826;stop-opacity:1"
         offset="1" />
    </linearGradient>
    <linearGradient
       x1="-9346.0996"
       y1="1021.6"
       x2="-5087"
       y2="1021.6"
       id="d"
       gradientUnits="userSpaceOnUse"
       gradientTransform="matrix(-0.21591,0.044142,-0.044142,-0.21591,-974.83,437.49)">
      <stop
         id="stop3493"
         style="stop-color:#9e2064;stop-opacity:1"
         offset="0.3233" />
      <stop
         id="stop3495"
         style="stop-color:#c92037;stop-opacity:1"
         offset="0.63020003" />
      <stop
         id="stop3497"
         style="stop-color:#cd2335;stop-opacity:1"
         offset="0.75139999" />
      <stop
         id="stop3499"
         style="stop-color:#e97826;stop-opacity:1"
         offset="1" />
    </linearGradient>
    <linearGradient
       x1="-9035.5"
       y1="638.44"
       x2="-6797.2002"
       y2="638.44"
       id="e"
       gradientUnits="userSpaceOnUse"
       gradientTransform="matrix(-0.21591,0.044142,-0.044142,-0.21591,-974.83,437.49)">
      <stop
         id="stop3484"
         style="stop-color:#282662;stop-opacity:1"
         offset="0" />
      <stop
         id="stop3486"
         style="stop-color:#662e8d;stop-opacity:1"
         offset="0.095484" />
      <stop
         id="stop3488"
         style="stop-color:#9f2064;stop-opacity:1"
         offset="0.78820002" />
      <stop
         id="stop3490"
         style="stop-color:#cd2032;stop-opacity:1"
         offset="0.94870001" />
    </linearGradient>
    <linearGradient
       x1="-9346.0996"
       y1="580.82001"
       x2="-5087"
       y2="580.82001"
       id="f"
       gradientUnits="userSpaceOnUse"
       gradientTransform="matrix(-0.21591,0.044142,-0.044142,-0.21591,-974.83,437.49)">
      <stop
         id="stop3475"
         style="stop-color:#9e2064;stop-opacity:1"
         offset="0.3233" />
      <stop
         id="stop3477"
         style="stop-color:#c92037;stop-opacity:1"
         offset="0.63020003" />
      <stop
         id="stop3479"
         style="stop-color:#cd2335;stop-opacity:1"
         offset="0.75139999" />
      <stop
         id="stop3481"
         style="stop-color:#e97826;stop-opacity:1"
         offset="1" />
    </linearGradient>
    <linearGradient
       x1="-9071.2002"
       y1="1047.7"
       x2="-6533.2002"
       y2="1047.7"
       id="g"
       gradientUnits="userSpaceOnUse"
       gradientTransform="matrix(-0.21591,0.044142,-0.044142,-0.21591,-974.83,437.49)">
      <stop
         id="stop3466"
         style="stop-color:#282662;stop-opacity:1"
         offset="0" />
      <stop
         id="stop3468"
         style="stop-color:#662e8d;stop-opacity:1"
         offset="0.095484" />
      <stop
         id="stop3470"
         style="stop-color:#9f2064;stop-opacity:1"
         offset="0.78820002" />
      <stop
         id="stop3472"
         style="stop-color:#cd2032;stop-opacity:1"
         offset="0.94870001" />
    </linearGradient>
    <linearGradient
       x1="-9585.2998"
       y1="620.5"
       x2="-5326.2002"
       y2="620.5"
       id="h"
       gradientUnits="userSpaceOnUse"
       gradientTransform="matrix(-0.21591,0.044142,-0.044142,-0.21591,-974.83,437.49)">
      <stop
         id="stop3457"
         style="stop-color:#9e2064;stop-opacity:1"
         offset="0.3233" />
      <stop
         id="stop3459"
         style="stop-color:#c92037;stop-opacity:1"
         offset="0.63020003" />
      <stop
         id="stop3461"
         style="stop-color:#cd2335;stop-opacity:1"
         offset="0.75139999" />
      <stop
         id="stop3463"
         style="stop-color:#e97826;stop-opacity:1"
         offset="1" />
    </linearGradient>
    <linearGradient
       x1="-5167.1001"
       y1="697.54999"
       x2="-4570.1001"
       y2="1395.6"
       id="i"
       gradientUnits="userSpaceOnUse"
       gradientTransform="matrix(-0.21591,0.044142,-0.044142,-0.21591,-974.83,437.49)">
      <stop
         id="stop3450"
         style="stop-color:#f69923;stop-opacity:1"
         offset="0" />
      <stop
         id="stop3452"
         style="stop-color:#f79a23;stop-opacity:1"
         offset="0.3123" />
      <stop
         id="stop3454"
         style="stop-color:#e97826;stop-opacity:1"
         offset="0.83829999" />
    </linearGradient>
    <linearGradient
       x1="-9035.5"
       y1="638.44"
       x2="-6797.2002"
       y2="638.44"
       id="linearGradient3869"
       xlink:href="#e"
       gradientUnits="userSpaceOnUse"
       gradientTransform="matrix(-0.21591,0.044142,-0.044142,-0.21591,-974.83,437.49)" />
    <linearGradient
       x1="-5167.1001"
       y1="697.54999"
       x2="-4570.1001"
       y2="1395.6"
       id="linearGradient3871"
       xlink:href="#i"
       gradientUnits="userSpaceOnUse"
       gradientTransform="matrix(-0.21591,0.044142,-0.044142,-0.21591,-974.83,437.49)" />
    <linearGradient
       x1="-9585.2998"
       y1="620.5"
       x2="-5326.2002"
       y2="620.5"
       id="linearGradient3873"
       xlink:href="#h"
       gradientUnits="userSpaceOnUse"
       gradientTransform="matrix(-0.21591,0.044142,-0.044142,-0.21591,-974.83,437.49)" />
    <linearGradient
       x1="-9346.0996"
       y1="580.82001"
       x2="-5087"
       y2="580.82001"
       id="linearGradient3875"
       xlink:href="#f"
       gradientUnits="userSpaceOnUse"
       gradientTransform="matrix(-0.21591,0.044142,-0.044142,-0.21591,-974.83,437.49)" />
    <linearGradient
       x1="-9346.0996"
       y1="1021.6"
       x2="-5087"
       y2="1021.6"
       id="linearGradient3877"
       xlink:href="#d"
       gradientUnits="userSpaceOnUse"
       gradientTransform="matrix(-0.21591,0.044142,-0.044142,-0.21591,-974.83,437.49)" />
    <linearGradient
       x1="-9610.2998"
       y1="999.72998"
       x2="-5351.2002"
       y2="999.72998"
       id="linearGradient3879"
       xlink:href="#c"
       gradientUnits="userSpaceOnUse"
       gradientTransform="matrix(-0.21591,0.044142,-0.044142,-0.21591,-974.83,437.49)" />
    <linearGradient
       x1="-9346.0996"
       y1="1152.7"
       x2="-5087"
       y2="1152.7"
       id="linearGradient3881"
       xlink:href="#b"
       gradientUnits="userSpaceOnUse"
       gradientTransform="matrix(-0.21591,0.044142,-0.044142,-0.21591,-974.83,437.49)" />
    <linearGradient
       x1="-9346.0996"
       y1="1137.7"
       x2="-5087"
       y2="1137.7"
       id="linearGradient3883"
       xlink:href="#a"
       gradientUnits="userSpaceOnUse"
       gradientTransform="matrix(-0.21591,0.044142,-0.044142,-0.21591,-974.83,437.49)" />
    <linearGradient
       x1="-6953.3999"
       y1="1134.7"
       x2="-6012"
       y2="1134.7"
       id="linearGradient3885"
       xlink:href="#j"
       gradientUnits="userSpaceOnUse"
       gradientTransform="matrix(-0.21591,0.044142,-0.044142,-0.21591,-974.83,437.49)" />
    <linearGradient
       x1="-9071.2002"
       y1="1047.7"
       x2="-6533.2002"
       y2="1047.7"
       id="linearGradient3887"
       xlink:href="#g"
       gradientUnits="userSpaceOnUse"
       gradientTransform="matrix(-0.21591,0.044142,-0.044142,-0.21591,-974.83,437.49)" />
    <radialGradient
       cx="12.333"
       cy="171.33299"
       r="219.577"
       id="radialGradient3889"
       xlink:href="#SVGID_2_"
       gradientUnits="userSpaceOnUse"
       gradientTransform="matrix(1,0,0,-1,0,194)" />
  </defs>
  <metadata
     id="metadata7">
    <rdf:RDF>
      <cc:Work
         rdf:about="">
        <dc:format>image/svg+xml</dc:format>
        <dc:type
           rdf:resource="http://purl.org/dc/dcmitype/StillImage" />
        <dc:title></dc:title>
      </cc:Work>
    </rdf:RDF>
  </metadata>
  <g
     transform="translate(-38.952392,799.97114)"
     id="layer1">
    <g
       transform="matrix(4.297619,0,0,4.297619,4.57144,-885.92352)"
       id="g3807">
      <path
         d="M 0,0 H 192 V 192 H 0 V 0 z"
         id="path3757"
         style="fill:none" />
      <g
         id="g3759">
        <g
           id="g3761">
          <path
             d="m 184,44 v 116 c 0,6.63 -5.37,12 -12,12 H 20 C 13.37,172 8,166.63 8,160 V 44 h 176 z"
             id="path3763"
             style="fill:#e1e1e1" />
          <path
             d="m 20,20 h 152 c 6.63,0 12,5.37 12,12 V 44 H 8 V 32 C 8,25.37 13.37,20 20,20 z"
             id="path3765"
             style="fill:#c2c2c2" />
          <path
             d="M 172,20 H 20 C 13.4,20 8,25.4 8,32 v 1 C 8,26.4 13.4,21 20,21 h 152 c 6.6,0 12,5.4 12,12 v -1 c 0,-6.6 -5.4,-12 -12,-12 z"
             id="path3767"
             style="fill:#ffffff;fill-opacity:0.2" />
          <path
             d="m 8,44 h 176 v 1 H 8 v -1 z"
             id="path3769"
             style="fill:#212121;fill-opacity:0.1" />
          <path
             d="m 95.93,80 c -35.36,0 -63.9,28.65 -63.9,64 0,1.34 -0.08,3 0,4 h 27.88 c -0.15,-1 0,-2.65 0,-4 0,-19.88 16.13,-36 36.02,-36 6.92,0 13.39,1.96 18.88,5.34 l 20.1,-20.1 C 124.11,84.94 110.6,80 95.93,80 z"
             id="path3771"
             style="fill:#4285f4" />
          <path
             d="m 134.91,93.24 -20.1,20.1 c 10.28,6.34 17.14,17.7 17.14,30.66 0,1.35 0.15,3 0,4 h 28.01 c 0.08,-1 0,-2.66 0,-4 0,-20.68 -9.82,-39.06 -25.05,-50.76 z"
             id="path3773"
             style="fill:#f44336" />
          <circle
             cx="24"
             cy="32"
             r="4"
             id="circle3775"
             style="fill:#eeeeee" />
          <circle
             cx="40"
             cy="32"
             r="4"
             id="circle3777"
             style="fill:#eeeeee" />
          <path
             d="M 172.02,171 H 19.96 c -6.6,0 -12,-5.4 -12,-12 v 1 c 0,6.6 5.4,12 12,12 h 152.06 c 6.6,0 12,-5.4 12,-12 v -1 c 0,6.6 -5.4,12 -12,12 l 0,0 z"
             id="path3779"
             style="fill:#212121;fill-opacity:0.1" />
          <path
             d="m 135.12,95.67 c 0.24,-0.33 0.38,-0.73 0.38,-1.17 0,-1.1 -0.9,-2 -2,-2 -0.47,0 -0.89,0.17 -1.23,0.44 l -43.61,33.57 c -2.84,2.19 -4.67,5.62 -4.67,9.49 0,6.63 5.37,12 12,12 4.35,0 8.14,-2.32 10.25,-5.78 l 0.01,0.01 28.87,-46.56 0,0 z"
             id="path3781"
             style="fill:#9e9e9e" />
          <path
             d="m 88.66,127.51 43.61,-33.58 c 0.34,-0.27 0.77,-0.44 1.23,-0.44 0.92,0 1.69,0.63 1.92,1.48 0.04,-0.15 0.08,-0.31 0.08,-0.48 0,-1.1 -0.9,-2 -2,-2 -0.47,0 -0.89,0.17 -1.23,0.44 L 88.66,126.5 c -2.84,2.19 -4.67,5.62 -4.67,9.49 0,0.18 0.02,0.36 0.03,0.54 0.14,-3.66 1.92,-6.91 4.64,-9.02 z"
             id="path3783"
             style="opacity:0.2;fill:#ffffff" />
          <path
             d="m 135.12,95.67 -28.87,46.56 -0.01,-0.01 c -2.11,3.46 -5.9,5.78 -10.25,5.78 -6.45,0 -11.69,-5.09 -11.97,-11.46 -0.01,0.15 -0.03,0.3 -0.03,0.46 0,6.63 5.37,12 12,12 4.35,0 8.14,-2.32 10.25,-5.78 l 0.01,0.01 28.87,-46.56 c 0.24,-0.33 0.38,-0.73 0.38,-1.17 0,-0.18 -0.03,-0.36 -0.08,-0.52 -0.06,0.25 -0.16,0.48 -0.3,0.69 z"
             id="path3785"
             style="opacity:0.2;fill:#212121" />
          <linearGradient
             x1="113.7175"
             y1="72.717499"
             x2="170.8495"
             y2="15.5855"
             id="SVGID_1_"
             gradientUnits="userSpaceOnUse"
             gradientTransform="matrix(1,0,0,-1,0,194)">
            <stop
               id="stop3788"
               style="stop-color:#212121;stop-opacity:0.2"
               offset="0" />
            <stop
               id="stop3790"
               style="stop-color:#212121;stop-opacity:0"
               offset="1" />
          </linearGradient>
          <path
             d="m 135.09,93.3 c 0.26,0.34 0.41,0.75 0.41,1.2 0,0.44 -0.14,0.84 -0.38,1.17 l -28.87,46.56 -0.01,-0.01 c -2.11,3.46 -5.9,5.78 -10.25,5.78 -2.97,0 -5.68,-1.08 -7.78,-2.87 L 115.08,172 H 172 c 6.63,0 12,-5.37 12,-12 V 142.21 L 135.09,93.3 z"
             id="path3792"
             style="fill:url(#SVGID_1_)" />
        </g>
        <radialGradient
           cx="12.333"
           cy="171.33299"
           r="219.577"
           id="SVGID_2_"
           gradientUnits="userSpaceOnUse"
           gradientTransform="matrix(1,0,0,-1,0,194)">
          <stop
             id="stop3795"
             style="stop-color:#ffffff;stop-opacity:0.1"
             offset="0" />
          <stop
             id="stop3797"
             style="stop-color:#ffffff;stop-opacity:0"
             offset="1" />
        </radialGradient>
        <path
           d="m 184,32 c 0,-6.63 -5.37,-12 -12,-12 L 20,20 C 13.37,20 8,25.37 8,32 L 8,97.662048 8,160 c 0,6.63 5.37,12 12,12 l 152,0 c 6.63,0 12,-5.37 12,-12 z"
           id="path3799"
           style="fill:url(#radialGradient3889)" />
      </g>
    </g>
    <g
       transform="matrix(0.60728573,0,0,0.60728573,243.80108,-700.71388)"
       id="g3832">
      <g
         transform="matrix(3.1322027,0,0,3.1322027,448.21255,-141.96415)"
         id="layer1-6">
        <path
           d="m 14.047838,32.727592 0,-19.064695 19.062499,19.064695 0,-19.064695"
           id="path2996"
           style="fill:none;stroke:#009900;stroke-width:5;stroke-linecap:round;stroke-linejoin:round;stroke-miterlimit:4;stroke-opacity:1;stroke-dasharray:none" />
        <path
           d="M 44.6875,11.1875 44,12.46875 38.6875,22.125 38,23.34375 38.6875,24.5625 44,33.90625 l 0.71875,1.28125 1.46875,0 10.875,0 1.5625,0 0.6875,-1.40625 3.96875,-8 1.78125,-3.625 -4.03125,0 L 50.875,22.1875 c -1.320782,-0.01868 -2.535605,1.179086 -2.535605,2.5 0,1.320914 1.214823,2.518679 2.535605,2.5 L 57,27.15625 l -1.5,3.03125 -7.875,0 -3.90625,-6.875 3.9375,-7.125 8.377221,0 1.953125,4.007812 5.03125,0 -3.171875,-7.601562 -0.6875,-1.40625 -1.5625,0 -11.408471,0 z"
           id="path2996-0"
           style="fill:#009900" />
        <path
           d="m 70.013782,11.15625 c -1.308989,0.01639 -2.485084,1.222261 -2.46875,2.53125 l 0,6.514509 5,0 0,-6.514509 c 0.01659,-1.329821 -1.201429,-2.547843 -2.53125,-2.53125 z"
           id="path2996-0-5"
           style="fill:#009900" />
        <use
           transform="matrix(-1,0,0,1,111.13905,0.04841623)"
           id="use3820"
           x="0"
           y="0"
           width="744.09448"
           height="1052.3622"
           xlink:href="#path2996" />
        <g
           transform="translate(0.10586251,0.33010228)"
           id="g3920">
          <path
             d="m 104.90935,13.374209 19.08481,19.017856"
             id="path2996-1"
             style="fill:none;stroke:#009900;stroke-width:5;stroke-linecap:round;stroke-linejoin:round;stroke-miterlimit:4;stroke-opacity:1;stroke-dasharray:none" />
          <use
             transform="matrix(-1,0,0,1,228.92583,0)"
             id="use3851"
             x="0"
             y="0"
             width="744.09448"
             height="1052.3622"
             xlink:href="#path2996-1" />
        </g>
        <path
           d="m 70.013782,35.204069 c -1.308989,-0.01639 -2.485084,-1.222261 -2.46875,-2.53125 l 0,-10.464363 5,0 0,10.464363 c 0.01659,1.329821 -1.201429,2.547843 -2.53125,2.53125 z"
           id="path2996-0-5-1"
           style="fill:#009900" />
      </g>
      <g
         transform="matrix(0.43303041,0,0,0.43303041,68.42211,-134.9456)"
         id="g3640"
         style="enable-background:new">
        <g
           transform="translate(-3.9433,180.23)"
           id="g3537">
          <path
             d="m 656.71,-7.0909 c 20.267,-9.5939 39.714,-20.144 58.137,-31.855 0.64586,-0.42398 1.3003,-0.79943 1.9461,-1.2234 -7.5146,19.097 -3.8382,52.585 -3.7537,52.44 11.85,-34.711 26.515,-65.255 48.744,-84.672 8.4826,7.5928 14.923,21.83 20.214,39.882 2.6186,-24.849 -1.858,-38.732 -4.0514,-43.799 10.917,12.948 30.734,20.176 52.045,26.46 -23.946,-14.536 -39.792,-28.878 -46.004,-42.955 68.312,-21.018 142.29,-46.157 219.96,-74.026 -6.0925,-4.5911 -12.639,-5.1694 -19.442,-3.1706 -14.023,5.1017 -106.22,38.312 -231.64,76.244 -3.5629,1.0778 -7.1567,2.1511 -10.768,3.2375 -1.0067,0.30738 -2.0264,0.59708 -3.0153,0.89135 -13.174,3.9515 -26.666,7.9189 -40.462,11.92 -3.1433,0.90384 -6.2865,1.8077 -9.4475,2.7247 -0.0663,0.02188 -0.13246,0.04334 -0.18106,0.052 l -34.514,68.935 c 0.7115,-0.33546 1.4939,-0.72358 2.2408,-1.0853 z"
             id="path3539"
             style="fill:url(#linearGradient3869)" />
          <path
             d="m 23.148,66.817 c 19.071,7.1961 39.608,9.0845 59.733,11.274 11.854,1.1234 23.738,1.9142 35.63,2.4926 8.1692,-17.104 16.338,-34.207 24.508,-51.311 -31.491,0.85648 -63.087,0.17618 -94.393,-3.5401 30.943,3.103 62.137,1.8494 93.129,0.17007 -22.37,-26.669 -46.909,-51.428 -71.93,-75.588 -23.519,11.839 -46.291,28.35 -58.634,52.244 -6.3001,14.546 -9.9508,31.534 -4.821,46.981 2.7562,7.894 9.065,14.16 16.773,17.277 z"
             id="path3541"
             style="fill:url(#linearGradient3871)" />
          <path
             d="m 280.24,-67.689 c -0.15352,-0.13308 -0.28936,-0.27929 -0.4429,-0.41235 l 2.6202,2.831 c 0.23288,0.12909 0.43954,0.22281 0.65472,0.36504 -0.94684,-0.94406 -1.8983,-1.8573 -2.832,-2.7836 z"
             id="path3543"
             style="fill:none" />
          <path
             d="m 368.72,-99.465 c 1.6889,1.4638 3.3155,3.0287 4.9198,4.6376 -1.6043,-1.6088 -3.2487,-3.1606 -4.9198,-4.6376 z"
             id="path3545"
             style="fill:none" />
          <path
             d="m 640.89,-71.354 c -0.77256,0.21613 -1.5451,0.43223 -2.3045,0.66606 -15.919,4.505 -31.444,8.8006 -46.643,12.908 -17.052,4.6045 -33.627,8.9648 -49.773,13.089 -17.016,4.3579 -33.536,8.4584 -49.579,12.315 -16.829,4.0548 -33.127,7.826 -48.887,11.362 -12.825,2.8692 -25.296,5.586 -37.426,8.1328 -4.0333,0.85047 -8.0489,1.6878 -12.029,2.4989 -7.881,1.6182 -15.643,3.1754 -23.223,4.6806 -7.0114,1.385 -13.886,2.6958 -20.659,3.9587 -2.2547,0.43715 -4.4872,0.83034 -6.7242,1.2544 -0.3574,0.072954 -0.72796,0.12822 -1.0854,0.20118 l 2.2258,2.4101 -2.5583,5.1341 c 0.55154,-0.10716 1.0985,-0.18347 1.6632,-0.27291 10.236,-1.7727 20.516,-3.6333 30.84,-5.5819 5.9654,-1.1307 11.949,-2.2746 17.936,-3.4492 16.6,-3.2538 33.24,-6.675 49.89,-10.268 16.826,-3.614 33.632,-7.4045 50.376,-11.314 16.449,-3.8277 32.823,-7.7924 49.096,-11.819 16.242,-4.0316 32.358,-8.1608 48.306,-12.331 16.654,-4.3643 33.08,-8.7783 49.245,-13.247 3.6463,-1.0025 7.2925,-2.0049 10.926,-3.0251 13.032,-3.6261 25.843,-7.2535 38.464,-10.878 l 4.0558,-8.1098 -2.4975,-2.7025 c -0.37966,0.11693 -0.7594,0.23382 -1.1214,0.3376 -16.542,4.885 -32.709,9.5737 -48.514,14.048 z"
             id="path3547"
             style="fill:none" />
          <path
             d="m 374.86,-93.622 c -0.012,-0.01769 -0.0309,-0.0044 -0.0441,-0.02219 0,0 0.012,0.01769 0.0441,0.02219 z"
             id="path3549"
             style="fill:none" />
          <path
             d="m 415.36,-112.67 c 2.517,2.3588 5.0819,4.8192 7.717,7.3373 0.012,0.0177 0.0441,0.0222 0.057,0.04 -1.2887,-1.2942 -2.5643,-2.5706 -3.8622,-3.8031 -1.2979,-1.2325 -2.5872,-2.4165 -3.9119,-3.5742 z"
             id="path3551"
             style="fill:#be202e" />
          <path
             d="m 415.36,-112.67 c 2.517,2.3588 5.0819,4.8192 7.717,7.3373 0.012,0.0177 0.0441,0.0222 0.057,0.04 -1.2887,-1.2942 -2.5643,-2.5706 -3.8622,-3.8031 -1.2979,-1.2325 -2.5872,-2.4165 -3.9119,-3.5742 z"
             id="path3553"
             style="opacity:0.35;fill:#be202e" />
          <path
             d="m 374.77,-93.666 c 0,0 0.012,0.01768 0.0309,0.0046 0.012,0.01769 0.0309,0.0044 0.0441,0.02219 -0.39436,-0.42092 -0.81102,-0.79786 -1.1923,-1.2011 -1.6175,-1.6266 -3.2618,-3.1783 -4.9198,-4.6376 1.9685,1.915 3.9986,3.8391 6.0373,5.8118 z"
             id="path3555"
             style="fill:#be202e" />
          <path
             d="m 374.77,-93.666 c 0,0 0.012,0.01768 0.0309,0.0046 0.012,0.01769 0.0309,0.0044 0.0441,0.02219 -0.39436,-0.42092 -0.81102,-0.79786 -1.1923,-1.2011 -1.6175,-1.6266 -3.2618,-3.1783 -4.9198,-4.6376 1.9685,1.915 3.9986,3.8391 6.0373,5.8118 z"
             id="path3557"
             style="opacity:0.35;fill:#be202e" />
          <path
             d="m 294.05,14.992 c -16.961,2.5069 -33.723,4.7285 -50.218,6.643 -17.122,1.9948 -33.955,3.6385 -50.416,4.8964 -0.9569,0.07847 -1.9446,0.15235 -2.9192,0.24395 -16.218,1.2152 -32.064,2.0446 -47.489,2.4796 l -24.508,51.311 c 3.1595,0.15406 6.3543,0.2819 9.6108,0.41887 12.251,0.46429 25.27,0.74328 38.902,0.81409 15.365,0.07595 31.56,-0.1344 48.36,-0.60148 15.522,-0.45209 31.601,-1.1524 48.051,-2.1282 14.003,-0.83512 28.316,-1.8448 42.838,-3.0914 0.5424,-0.0455 1.068,-0.07818 1.6104,-0.12365 13.32,-22.17 22.89,-45.722 34.335,-68.583 -16.183,2.7801 -32.241,5.3583 -48.157,7.7211 z"
             id="path3559"
             style="fill:url(#linearGradient3873)" />
          <path
             d="m 639.56,-61.012 c -16.179,4.4506 -32.604,8.8647 -49.245,13.247 -15.935,4.1875 -32.046,8.2859 -48.306,12.331 -16.26,4.0447 -32.63,7.9786 -49.096,11.819 -16.744,3.9098 -33.563,7.6825 -50.376,11.314 -16.632,3.5798 -33.29,7.0141 -49.89,10.268 -5.9877,1.1747 -11.971,2.3185 -17.936,3.4492 -10.325,1.9485 -20.605,3.8091 -30.84,5.5819 -0.55156,0.10715 -1.0985,0.18346 -1.6632,0.2729 l -34.33,68.583 c 1.0848,-0.091 2.1565,-0.19968 3.2413,-0.29065 15.39,-1.3696 31.015,-2.9407 46.779,-4.8063 15.922,-1.8736 31.965,-4.0286 48.062,-6.4433 13.582,-2.0319 27.162,-4.2534 40.724,-6.6821 2.7532,-0.50491 5.4578,-1.0013 8.1802,-1.5108 16.983,-3.1812 33.094,-6.6493 48.365,-10.29 17.296,-4.1271 33.51,-8.4938 48.609,-12.995 9.938,-2.9512 19.414,-5.9711 28.431,-8.9803 7.6399,-2.6465 15.232,-5.3947 22.71,-8.2228 17.654,-6.6419 34.84,-13.842 51.5,-21.64 11.64,-22.613 23.669,-45.588 34.514,-68.935 -12.622,3.624 -25.468,7.2775 -38.5,10.904 -3.6155,1.007 -7.2794,2.0226 -10.926,3.0251 z"
             id="path3561"
             style="fill:url(#linearGradient3875)" />
          <path
             d="m 343.66,-0.50096 c 2.2193,-0.41089 4.4564,-0.83491 6.7242,-1.2543 6.7596,-1.2806 13.634,-2.5914 20.659,-3.9587 7.5938,-1.4876 15.325,-3.0493 23.223,-4.6806 3.9802,-0.81109 7.965,-1.653 12.029,-2.4989 12.131,-2.5468 24.602,-5.2637 37.426,-8.1328 15.759,-3.5362 32.058,-7.3074 48.887,-11.362 16.043,-3.8564 32.564,-7.9569 49.579,-12.315 16.146,-4.1247 32.739,-8.4981 49.773,-13.089 15.198,-4.1078 30.724,-8.4034 46.643,-12.908 0.77254,-0.21613 1.5451,-0.43223 2.3045,-0.66606 15.804,-4.4748 31.971,-9.1635 48.483,-14.053 0.3797,-0.1169 0.7594,-0.23382 1.1214,-0.33761 l -19.143,-20.676 c 0.2395,0.5082 0.5278,1.0079 0.7674,1.5161 -23.296,-24.428 -69.92,-45.278 -111.88,-49.997 -19.338,-2.1783 -39.994,-1.8427 -62.413,0.92504 -16.69,2.0589 -34.353,5.4699 -53.191,10.219 -16.464,4.1405 -33.814,9.2679 -52.184,15.425 7.8381,3.7633 15.478,9.0727 22.931,15.646 1.2939,1.1531 2.614,2.3417 3.9119,3.5742 1.2979,1.2325 2.5912,2.4958 3.8622,3.8031 -0.012,-0.0177 -0.0441,-0.0222 -0.0569,-0.04 -28.247,-17.932 -58.622,-19.938 -89.973,-14.526 9.3924,3.2694 23.242,9.6268 35.603,20.379 1.6889,1.4639 3.3155,3.0287 4.9198,4.6376 0.41208,0.40779 0.81102,0.79786 1.1923,1.2011 -0.012,-0.01769 -0.0309,-0.0045 -0.0441,-0.02217 0,0 -0.012,-0.01769 -0.0309,-0.0045 -10.105,-6.0061 -19.623,-10.334 -29.164,-13.137 -2.0374,-0.60186 -4.084,-1.1421 -6.1444,-1.5898 -3.1256,-0.70044 -6.2609,-1.229 -9.4323,-1.6212 -2.0262,-0.25361 -4.0614,-0.44555 -6.1236,-0.56271 -4.8248,-0.29107 -9.7616,-0.2522 -14.877,0.1383 -1.5609,0.1148 -3.1265,0.26044 -4.7274,0.43231 -2.2279,0.36236 -4.3941,0.73388 -6.5295,1.11 -9.6447,1.7187 -18.003,3.5811 -25.18,5.4456 -3.5886,0.93227 -6.8597,1.8486 -9.8489,2.7754 -1.1876,0.35928 -2.3445,0.72314 -3.4528,1.0785 -3.3117,1.0836 -6.2044,2.1035 -8.6957,3.0727 -3.7281,1.4472 -6.5694,2.7582 -8.5675,3.8006 1.3027,0.35098 2.6974,0.8259 4.1661,1.4378 10.15,4.2169 23.891,14.166 33.591,23.215 l -17.583,-18.98 17.583,18.98 c 0.15354,0.13308 0.28938,0.2793 0.44292,0.41237 0.95142,0.91323 1.8983,1.8573 2.8628,2.7882 -0.23288,-0.1291 -0.43954,-0.17283 -0.65472,-0.31504 l 60.164,64.89 c 0.33972,-0.059824 0.67944,-0.11965 1.05,-0.17492 z"
             id="path3563"
             style="fill:url(#linearGradient3877)" />
          <path
             d="m 141.76,25.871 c 14.308,-0.86871 30.359,-2.1245 48.242,-3.9432 0.92606,-0.08306 1.8876,-0.19234 2.8313,-0.2885 15.471,-1.594 32.288,-3.5552 50.488,-6.02 15.721,-2.1083 32.439,-4.5725 50.245,-7.4582 15.511,-2.5017 31.888,-5.3162 49.043,-8.4876 l -59.49,-64.569 c -24.736,-13.567 -40.821,-16.794 -59.841,-16.547 -5.1755,0.16099 -10.523,0.42238 -15.982,0.79335 -16.711,1.142 -34.469,3.2787 -51.604,6.1064 -16.54,2.7429 -32.435,6.1328 -46.23,9.9134 -8.7714,2.4155 -16.684,4.99 -23.332,7.642 -5.8619,2.3434 -11.266,4.7863 -16.287,7.3018 25.101,24.05 54.589,54.423 71.931,75.557 z"
             id="path3565"
             style="fill:url(#linearGradient3879)" />
          <path
             d="m 419.27,-109.1 c 1.2979,1.2325 2.5912,2.4958 3.8622,3.8031 -1.271,-1.3073 -2.5643,-2.5706 -3.8622,-3.8031 z"
             id="path3567"
             style="fill:#be202e" />
          <path
             d="m 419.27,-109.1 c 1.2979,1.2325 2.5912,2.4958 3.8622,3.8031 -1.271,-1.3073 -2.5643,-2.5706 -3.8622,-3.8031 z"
             id="path3569"
             style="opacity:0.35;fill:#be202e" />
          <path
             d="m 419.27,-109.1 c 1.2979,1.2325 2.5912,2.4958 3.8622,3.8031 -1.271,-1.3073 -2.5643,-2.5706 -3.8622,-3.8031 z"
             id="path3571"
             style="fill:url(#linearGradient3881)" />
          <path
             d="m 374.86,-93.622 c -0.39438,-0.42091 -0.81102,-0.79787 -1.1923,-1.2011 0.38126,0.4032 0.7802,0.79328 1.1923,1.2011 z"
             id="path3573"
             style="fill:#be202e" />
          <path
             d="m 374.86,-93.622 c -0.39438,-0.42091 -0.81102,-0.79787 -1.1923,-1.2011 0.38126,0.4032 0.7802,0.79328 1.1923,1.2011 z"
             id="path3575"
             style="opacity:0.35;fill:#be202e" />
          <path
             d="m 374.86,-93.622 c -0.39438,-0.42091 -0.81102,-0.79787 -1.1923,-1.2011 0.38126,0.4032 0.7802,0.79328 1.1923,1.2011 z"
             id="path3577"
             style="fill:url(#linearGradient3883)" />
          <path
             d="m 374.81,-93.662 c 0,0 -0.012,-0.01769 -0.0309,-0.0045 0,0 0.012,0.01769 0.0309,0.0045 z"
             id="path3579"
             style="fill:#be202e" />
          <path
             d="m 374.81,-93.662 c 0,0 -0.012,-0.01769 -0.0309,-0.0045 0,0 0.012,0.01769 0.0309,0.0045 z"
             id="path3581"
             style="opacity:0.35;fill:#be202e" />
          <path
             d="m 374.81,-93.662 c 0,0 -0.012,-0.01769 -0.0309,-0.0045 0,0 0.012,0.01769 0.0309,0.0045 z"
             id="path3583"
             style="fill:url(#linearGradient3885)" />
          <path
             d="m 697.74,-87.882 c 12.856,-3.8255 25.903,-7.7645 39.192,-11.856 0.1987,-0.06501 0.3797,-0.1169 0.5784,-0.18193 1.8809,-0.57144 3.7485,-1.1606 5.6293,-1.732 8.9497,-2.7671 16.955,-5.3279 35.178,-11.129 -2.3417,-10.966 2.6186,-24.849 9.1692,-39.363 -11.075,9.2259 -18.387,22.082 -20.063,37.399 -28.142,-41.768 -64.174,-69.017 -107.07,-65.115 -3.8322,0.34468 -7.6833,0.92288 -11.624,1.7871 16.438,0.48738 28.367,7.3631 41.449,27.265 0.0441,0.0223 0.101,0.0623 0.1451,0.0846 -0.0441,-0.0223 -0.101,-0.0623 -0.1451,-0.0846 -33.43,-18.78 -55.964,-23.938 -85.227,-21.557 -6.9364,0.56118 -14.25,1.539 -22.182,2.866 43.476,5.8729 71.791,29.037 88.586,63.086 l 0.7758,1.4939 18.367,19.182 c 2.4192,-0.69629 4.8254,-1.4103 7.2492,-2.1374 z"
             id="path3585"
             style="fill:url(#linearGradient3887)" />
        </g>
      </g>
    </g>
  </g>
</svg>
